<?xml version="1.0" encoding="UTF-8"?>
<svg xmlns="http://www.w3.org/2000/svg" viewBox="0 0 512 512" role="img" aria-labelledby="title desc">
  <title id="title">Spud OpenAI logo mark</title>
  <desc id="desc">A minimal monochrome symbol with two flowing branches and four nodes.</desc>
  <rect width="512" height="512" rx="116" fill="#f6f2e8"/>
  <rect x="26" y="26" width="460" height="460" rx="102" fill="none" stroke="rgba(17,17,17,0.08)" stroke-width="2"/>
  
  <path d="M172 132C220 120 312 124 344 194C359 226 355 267 336 290C313 319 272 327 239 339C198 354 168 381 166 427M340 124C292 136 210 161 191 222C180 258 193 295 221 317C252 341 295 338 331 349C376 362 408 391 414 431" fill="none" stroke="#111111" stroke-width="58" stroke-linecap="round" stroke-linejoin="round"/>
  <circle cx="169" cy="129" r="25" fill="#111111"/>
  <circle cx="342" cy="125" r="25" fill="#111111"/>
  <circle cx="166" cy="429" r="25" fill="#111111"/>
  <circle cx="414" cy="431" r="25" fill="#111111"/>

</svg>
